<?xml version="1.0" encoding="UTF-8" standalone="no"?>
<svg
   xmlns:dc="http://purl.org/dc/elements/1.1/"
   xmlns:cc="http://creativecommons.org/ns#"
   xmlns:rdf="http://www.w3.org/1999/02/22-rdf-syntax-ns#"
   xmlns:svg="http://www.w3.org/2000/svg"
   xmlns="http://www.w3.org/2000/svg"
   id="svg8"
   version="1.1"
   viewBox="0 0 140 153" height="153pt" width="140pt">
  <metadata
     id="metadata25">
    <rdf:RDF>
      <cc:Work
         rdf:about="">
        <dc:format>image/svg+xml</dc:format>
        <dc:type
           rdf:resource="http://purl.org/dc/dcmitype/StillImage" />
      </cc:Work>
    </rdf:RDF>
  </metadata>
  <defs
     id="defs23" />
     
  <style type="text/css" >
      <![CDATA[
        @keyframes colorChange1 {
  0% {
    fill: #000000;
  }
  50% {
    fill: #123456;
  }
  100% {
    fill: #234567;
  }
}

@keyframes colorChange2 {
  0% {
    fill: #000000;
  }
  50% {
    fill: #123456;
  }
  100% {
    fill: #234567;
  }
}

@keyframes colorChange3 {
  0% {
    fill: #234567;
  }
  50% {
    fill: #000000;
  }
  100% {
    fill: #123456;
  }
}
.anim1 {
  animation: colorChange1 3s infinite;
  animation-delay: 1s;
}
.anim2 {
  animation: colorChange2 3s infinite;
  animation-delay: 1s;
}
.anim3 {
  animation: colorChange3 3s infinite;
  animation-delay: 2s;
}
      ]]>
  </style>
  <g
     transform="translate(-45.275362,-49.824571)"
     id="surface1">
    <path
     class="anim1"
       id="path2"
       d="m 136.61719,50.140625 c -4.17578,0.792969 -8.23438,2.589844 -11.61719,5.148437 -1.05859,0.796876 -11.17578,10.769532 -22.53125,22.15625 -22.175781,22.246094 -22.644531,22.777348 -24.527344,27.660158 -0.5,1.26562 -1.089844,3.26562 -1.351562,4.44531 -0.648438,2.91016 -0.648438,8.53125 0.02734,11.38672 0.53125,2.32422 2.148437,6.76563 2.472656,6.76563 0.117187,0 1.734375,-1.5586 3.644531,-3.47266 l 3.441406,-3.46875 -0.351562,-1.00391 c -0.617188,-1.64453 -0.5,-7.73828 0.175781,-9.70703 1.058594,-3.12109 2.234375,-4.97265 4.707031,-7.59375 3.96875,-4.17578 39.675783,-39.753905 40.410163,-40.222655 1.41406,-1 4.70703,-2.441406 6.38281,-2.796875 5.85156,-1.265625 11.82422,0.414062 16.14844,4.445312 2.29297,2.175782 3.67578,4.234376 4.82031,7.265626 0.64844,1.738281 0.73828,2.445312 0.76562,5.652343 0,3.234375 -0.0859,3.941407 -0.79296,5.855469 C 158,83.859375 157.23437,85.507812 156.70703,86.332031 156.17578,87.1875 150.26562,93.367188 143,100.69141 l -12.79297,12.83203 1.82422,2 c 1,1.08594 2.29297,2.76562 2.85156,3.70703 l 1.02735,1.70703 13.17968,-13.18359 c 7.44141,-7.44532 13.76172,-14.007816 14.52735,-15.125004 5.64843,-7.972656 6.53125,-18.683594 2.23437,-27.480468 -3.5,-7.152344 -10.02734,-12.507813 -17.76172,-14.566407 -2.97265,-0.796875 -8.55859,-1 -11.47265,-0.441406 z m 0,0"
       style="fill:#234567;fill-opacity:1;fill-rule:nonzero;stroke:none" />
    <path
    class="anim2"
       id="path6"
       d="m 116.76563,128.96875 c -5,4.97266 -6.5,6.00391 -10.14844,7.00391 -1.91016,0.53125 -2.85156,0.61718 -5.14844,0.47265 -3.644531,-0.20703 -6.410156,-1.20703 -9.761719,-3.53125 -0.472656,-0.29687 -0.914062,0.0273 -3.472656,2.58985 -1.617187,1.61718 -2.941406,3.02734 -2.941406,3.14843 0,0.41016 3.589843,2.91016 5.589843,3.91016 5.910157,2.97266 13.265628,3.50391 19.558598,1.32422 C 114.96875,142.35937 117,140.97656 122,136.08984 l 4.46875,-4.41406 -1,-2.05859 c -0.9375,-1.85547 -3.4375,-5.14844 -3.9375,-5.14844 -0.12109,0 -2.26562,2.02734 -4.76562,4.5 z m 0,0"
       style="fill:#234567;fill-opacity:1;fill-rule:nonzero;stroke:none" />
       
       <path
     class="anim3"
       id="path4"
       d="m 105.96875,110.46094 c -4.05859,0.79297 -7.820312,2.38281 -11.117188,4.73828 -0.96875,0.70703 -11.234374,10.79687 -22.851562,22.42187 -22.234375,22.30469 -22.765625,22.89063 -24.648438,27.42188 -3.792968,9.21094 -2.320312,19.6875 3.855469,27.45703 5.410157,6.82422 14.144531,10.67969 22.882813,10.14844 5.144531,-0.32422 10.441406,-2.23438 14.410156,-5.17578 2.910156,-2.17969 43.20703,-42.72657 44.73437,-45.02344 1.73438,-2.58594 3.0586,-5.5586 3.85547,-8.70703 0.94141,-3.64844 0.96875,-9.15235 0.0273,-12.89063 -2.46875,-9.85547 -9.94141,-17.32812 -20.02735,-19.94922 -2.91406,-0.76562 -8.26562,-0.96875 -11.12109,-0.4414 z m 9,9.47656 c 5.5,1.23438 10.38281,5.53125 12.58984,11.15234 0.73438,1.91016 0.79297,2.38282 0.82422,6.17578 0,3.97266 -0.0586,4.21094 -0.97265,6.47657 -0.5,1.29297 -1.58594,3.20703 -2.37891,4.26562 -2.38281,3.11719 -40.738281,41.19531 -42.941406,42.63672 -2.238282,1.44141 -5.558594,2.55859 -8.414063,2.82422 -4.707031,0.44141 -10.175781,-1.64844 -13.824219,-5.26563 -3.617187,-3.58984 -5.234374,-7.41796 -5.234374,-12.53515 -0.02734,-3.53125 0.441406,-5.50391 2.089843,-8.67969 0.941407,-1.88281 2.851563,-3.88672 21.644531,-22.74609 11.355469,-11.38672 21.355469,-21.1875 22.238278,-21.77735 4.44141,-2.96875 8.85157,-3.76562 14.37891,-2.52734 z m 0,0"
       style="fill:#234567;fill-opacity:1;fill-rule:nonzero;stroke:none" />
  </g>
</svg>
